<svg xmlns="http://www.w3.org/2000/svg" width="21" height="20" fill="none"><path fill="#fff" fill-rule="evenodd" d="M16.965 7.273a3.636 3.636 0 1 0-3.556-2.875L6.98 7.612a3.636 3.636 0 1 0 .196 4.53l6.244 3.406a3.636 3.636 0 1 0 .838-1.614l-6.41-3.496a3.673 3.673 0 0 0-.055-1.2l6.429-3.214a3.628 3.628 0 0 0 2.742 1.249Zm0-1.818a1.818 1.818 0 1 0 0-3.637 1.818 1.818 0 0 0 0 3.637ZM4.238 11.818a1.818 1.818 0 1 0 0-3.636 1.818 1.818 0 0 0 0 3.636Zm14.545 4.546a1.818 1.818 0 1 1-3.636 0 1.818 1.818 0 0 1 3.636 0Z" clip-rule="evenodd"/></svg>