<svg xmlns="http://www.w3.org/2000/svg" width="21" height="20" fill="none"><path fill="#fff" d="M17.702 2.874C15.802 1.037 13.302 0 10.639 0 2.997 0-1.8 8.28 2.015 14.865L.602 20l5.279-1.377c2.3 1.243 4.184 1.133 4.763 1.206 8.86 0 13.272-10.72 7.045-16.922l.013-.033Z"/><path fill="#EF3E2C" d="M10.656 18.125h-.019c-2.651 0-4.345-1.256-4.512-1.329L3 17.61l.837-3.038-.199-.312a8.224 8.224 0 0 1-1.263-4.383c0-7.328 8.954-10.992 14.136-5.813 5.169 5.125 1.54 14.063-5.855 14.063Z"/><path fill="#fff" d="m15.19 11.923-.007.062c-.25-.125-1.472-.722-1.7-.805-.51-.189-.366-.03-1.347 1.094-.146.162-.291.175-.538.062-.25-.125-1.053-.387-2.003-1.237-.74-.663-1.237-1.475-1.383-1.725-.244-.422.266-.482.731-1.362.084-.175.041-.313-.02-.437-.063-.125-.56-1.35-.769-1.838-.2-.487-.406-.425-.56-.425-.48-.042-.83-.035-1.14.287-1.345 1.478-1.006 3.003.145 4.625 2.262 2.96 3.467 3.505 5.67 4.261.595.19 1.138.163 1.567.101.478-.076 1.472-.6 1.68-1.188.212-.588.212-1.075.15-1.188-.062-.112-.225-.175-.475-.287Z"/></svg>