<svg xmlns="http://www.w3.org/2000/svg" width="330" height="264" fill="none"><mask id="a" width="330" height="264" x="0" y="0" maskUnits="userSpaceOnUse" style="mask-type:alpha"><path fill="#EF3E2C" d="M0 0h330v264H0V0Z"/></mask><g filter="url(#b)" mask="url(#a)"><path fill="#fff" d="M0 0v-1h-1v1h1Zm280 0 .707-.707-.293-.293H280v1ZM0 264h-1v1h1v-1Zm330 0v1h1v-1h-1Zm0-214h1v-.414l-.293-.293L330 50ZM0 1h280v-2H0v2Zm1 263V0h-2v264h2Zm329-1H0v2h330v-2Zm-1-213v214h2V50h-2Zm1.707-.707-50-50-1.414 1.414 50 50 1.414-1.414Z"/></g><defs><filter id="b" width="372" height="306" x="-21" y="-21" color-interpolation-filters="sRGB" filterUnits="userSpaceOnUse"><feFlood flood-opacity="0" result="BackgroundImageFix"/><feGaussianBlur in="BackgroundImageFix" stdDeviation="10"/><feComposite in2="SourceAlpha" operator="in" result="effect1_backgroundBlur_19_5302"/><feBlend in="SourceGraphic" in2="effect1_backgroundBlur_19_5302" result="shape"/></filter></defs></svg>