<svg xmlns="http://www.w3.org/2000/svg" width="571" height="490" fill="none"><mask id="a" width="571" height="490" x="0" y="0" maskUnits="userSpaceOnUse" style="mask-type:alpha"><path fill="#EF3E2C" d="M.602 0h570v490h-570V0Z"/></mask><g filter="url(#b)" mask="url(#a)"><path fill="#fff" d="M.602 0v-1h-1v1h1Zm570 0h1v-1h-1v1Zm-570 390h-1v.414l.292.293.708-.707Zm100 100-.708.707.293.293h.415v-1Zm470 0v1h1v-1h-1ZM.602 1h570v-2h-570v2Zm1 389V0h-2v390h2Zm-1.708.707 100 100 1.415-1.414-100-100-1.415 1.414ZM570.602 489h-470v2h470v-2Zm-1-489v490h2V0h-2Z"/></g><defs><filter id="b" width="612" height="532" x="-20.398" y="-21" color-interpolation-filters="sRGB" filterUnits="userSpaceOnUse"><feFlood flood-opacity="0" result="BackgroundImageFix"/><feGaussianBlur in="BackgroundImageFix" stdDeviation="10"/><feComposite in2="SourceAlpha" operator="in" result="effect1_backgroundBlur_19_3297"/><feBlend in="SourceGraphic" in2="effect1_backgroundBlur_19_3297" result="shape"/></filter></defs></svg>