<svg xmlns="http://www.w3.org/2000/svg" width="14" height="15" fill="none"><path fill="#EF3E2C" fill-rule="evenodd" d="M6.852 3.753a2.5 2.5 0 1 0 0 5 2.5 2.5 0 0 0 0-5Zm-1.25 2.5a1.25 1.25 0 1 1 2.5 0 1.25 1.25 0 0 1-2.5 0Z" clip-rule="evenodd"/><path fill="#EF3E2C" fill-rule="evenodd" d="M6.852.003C3.413.003.602 2.732.602 6.128c0 2.292 1.372 4.5 2.728 6.079.69.802 1.4 1.473 1.985 1.947.292.237.562.432.788.571.113.07.225.131.33.178.087.037.243.1.419.1.175 0 .332-.063.417-.1.106-.047.219-.109.331-.178.227-.14.496-.334.788-.57a15.874 15.874 0 0 0 1.985-1.948c1.356-1.58 2.729-3.787 2.729-6.08 0-3.395-2.812-6.124-6.25-6.124Zm-5 6.125c0-2.68 2.225-4.875 5-4.875 2.774 0 5 2.196 5 4.875 0 1.833-1.128 3.75-2.428 5.265a14.631 14.631 0 0 1-1.823 1.79 6.528 6.528 0 0 1-.656.477c-.035.022-.067.04-.093.055a2.336 2.336 0 0 1-.094-.055 6.527 6.527 0 0 1-.655-.477 14.631 14.631 0 0 1-1.824-1.79c-1.3-1.514-2.427-3.432-2.427-5.265Z" clip-rule="evenodd"/></svg>