<svg xmlns="http://www.w3.org/2000/svg" width="16" height="15" fill="none"><path fill="#EF3E2C" d="M8.167.003c.347 0 .63.28.63.625a.627.627 0 0 1-.63.625c-3.475 0-6.292 2.798-6.292 6.25s2.817 6.25 6.292 6.25a6.29 6.29 0 0 0 4.142-1.545.632.632 0 0 1 .888.058.622.622 0 0 1-.06.882 7.552 7.552 0 0 1-4.97 1.855c-4.17 0-7.55-3.358-7.55-7.5 0-4.142 3.38-7.5 7.55-7.5Z"/><path fill="#EF3E2C" d="M8.796 3.128a.627.627 0 0 0-.629-.625c-.348 0-.63.28-.63.625v4.375c0 .166.067.325.185.442l2.202 2.187a.632.632 0 0 0 .89 0 .622.622 0 0 0 0-.884L8.796 7.244V3.128ZM14.48 10.4a.631.631 0 0 0-.859.228.623.623 0 0 0 .23.854c.301.172.686.07.86-.229a.623.623 0 0 0-.23-.854ZM14.368 8.588a.629.629 0 0 1 1.24.217.629.629 0 0 1-1.24-.217ZM14.879 5.694a.625.625 0 1 0 .218 1.23.625.625 0 1 0-.218-1.23ZM13.62 4.378a.623.623 0 0 1 .231-.854c.301-.172.686-.07.86.229a.623.623 0 0 1-.23.854.631.631 0 0 1-.86-.229ZM12.139 1.835a.622.622 0 0 0 .077.88.632.632 0 0 0 .887-.077.622.622 0 0 0-.078-.88.632.632 0 0 0-.886.077ZM10.324 1.63a.624.624 0 0 1-.376-.801.63.63 0 0 1 .807-.374.624.624 0 0 1 .376.801.63.63 0 0 1-.807.374Z"/></svg>