<svg xmlns="http://www.w3.org/2000/svg" width="32" height="32" fill="none"><path fill="#FF4759" fill-rule="evenodd" d="M23.543 0H9.57c-.277 0-.543.108-.742.301L.926 7.953a1.064 1.064 0 0 0-.324.766v19.548c0 2.4 1.333 3.733 3.733 3.733h19.208c2.4 0 3.733-1.333 3.733-3.733V3.736C27.282 1.331 25.943 0 23.543 0ZM8.477 3.53V7.6H4.26l4.216-4.07Zm16.932 24.739c0 .862-.23 1.26-.42 1.446-.19.187-.583.42-1.446.42h-19.2c-.862 0-1.26-.234-1.447-.42-.188-.185-.42-.584-.42-1.446V9.463c.043.005.085.009.128.01h6.54a1.2 1.2 0 0 0 1.198-1.2V1.96c0-.032 0-.062-.006-.094h13.207c.863 0 1.26.229 1.447.42.187.191.419.584.419 1.447v24.535Z" clip-rule="evenodd"/><path fill="#FF4759" d="M8.612 26.667c-1.733 0-2.667-.933-2.667-2.667v-7.466c0-1.733.934-2.667 2.667-2.667h19.997c1.733 0 2.666.934 2.666 2.666V24c0 1.734-.933 2.667-2.666 2.667H8.612Z"/><path fill="#fff" d="M13.9 17.635a2.322 2.322 0 0 0-1.129-.253h-2.29v5.824h1.225v-1.892h1.03c.397.012.79-.073 1.146-.248a1.73 1.73 0 0 0 .725-.687 2.228 2.228 0 0 0 0-2.045 1.71 1.71 0 0 0-.708-.699Zm-.427 2.227a.803.803 0 0 1-.343.343c-.182.089-.384.13-.586.123h-.838v-1.94h.83a1.26 1.26 0 0 1 .59.122.768.768 0 0 1 .344.338c.08.156.119.33.114.505.005.176-.033.35-.11.509ZM20.045 17.731a3.092 3.092 0 0 0-1.512-.35h-2.08v5.825h2.062a3.12 3.12 0 0 0 1.522-.35c.42-.227.762-.577.98-1.003a3.709 3.709 0 0 0 0-3.118 2.358 2.358 0 0 0-.972-1.004Zm-.095 3.617c-.114.26-.313.473-.564.605-.285.137-.6.203-.916.193h-.781v-3.71h.785c.316-.01.63.056.916.193.25.131.447.344.56.603.138.333.203.692.19 1.053.013.364-.052.726-.19 1.063ZM26.926 18.398v-1.015h-3.852V23.2h1.23v-2.403h2.367v-1.015h-2.367v-1.385h2.622Z"/></svg>