<svg xmlns="http://www.w3.org/2000/svg" width="40" height="40" fill="none"><path stroke="#fff" stroke-linecap="round" stroke-linejoin="round" stroke-width="3" d="M17.352 2h-13.5a2.25 2.25 0 0 0-2.25 2.25v13.5A2.25 2.25 0 0 0 3.852 20h13.5a2.25 2.25 0 0 0 2.25-2.25V4.25A2.25 2.25 0 0 0 17.352 2ZM10.602 2v4.5M19.602 20v15.75a2.25 2.25 0 0 1-2.25 2.25h-13.5a2.25 2.25 0 0 1-2.25-2.25V20M10.602 20v4.5"/><path stroke="#fff" stroke-linecap="round" stroke-linejoin="round" stroke-width="3" d="M37.602 26.75v9a2.25 2.25 0 0 1-2.25 2.25h-13.5a2.25 2.25 0 0 1-2.25-2.25v-9M28.602 26.75v4.5M35.352 15.5h-13.5a2.25 2.25 0 0 0-2.25 2.25v6.75a2.25 2.25 0 0 0 2.25 2.25h13.5a2.25 2.25 0 0 0 2.25-2.25v-6.75a2.25 2.25 0 0 0-2.25-2.25ZM28.602 15.5V20"/></svg>