<svg xmlns="http://www.w3.org/2000/svg" width="36" height="40" fill="none"><path stroke="#fff" stroke-linecap="round" stroke-linejoin="round" stroke-width="3" d="m20.602 36.87-3 1.13-3-1.13a20 20 0 0 1-13-18.73V10a20 20 0 0 0 16-8 20 20 0 0 0 16 8v8.14a20 20 0 0 1-13 18.73v0Z"/><path fill="#fff" d="M15.753 28.58h-2.688V11.42h5.712c1.2 0 2.24.208 3.12.624.896.416 1.592 1 2.088 1.752.512.752.768 1.624.768 2.616s-.256 1.864-.768 2.616c-.496.752-1.192 1.336-2.088 1.752-.88.416-1.92.624-3.12.624H10.45v-2.136h8.328c1.024 0 1.832-.256 2.424-.768.592-.512.888-1.208.888-2.088 0-.88-.296-1.576-.888-2.088-.592-.512-1.4-.768-2.424-.768h-3.024V28.58Zm5.256-4.992V25.7H10.45v-2.112h10.56Z"/></svg>