<svg xmlns="http://www.w3.org/2000/svg" width="40" height="31" fill="none"><path stroke="#fff" stroke-linecap="round" stroke-linejoin="round" stroke-width="3" d="M23.602 9.5h10l4 4v12h-6"/><path stroke="#fff" stroke-linecap="round" stroke-linejoin="round" stroke-width="3" d="M27.602 29.5a4 4 0 1 0 0-8 4 4 0 0 0 0 8Z"/><path stroke="#fff" stroke-linecap="round" stroke-linejoin="round" stroke-width="3" d="M5.602 25.5a4 4 0 0 1-4-4v-16a4 4 0 0 1 4-4h14a4 4 0 0 1 4 4v20h-10"/><path stroke="#fff" stroke-linecap="round" stroke-linejoin="round" stroke-width="3" d="M9.602 29.5a4 4 0 1 0 0-8 4 4 0 0 0 0 8Z"/></svg>