<svg xmlns="http://www.w3.org/2000/svg" width="697" height="260" fill="none"><path fill="#EF3E2C" d="M155.614 260h-41.493v-45.578H.961v-33.32L114.12 35.251h41.493v145.851h31.433v33.32h-31.433V260ZM114.121 88.374l-72.925 92.728h72.925V88.374ZM665.548 260h-41.492v-45.578H510.895v-33.32L624.056 35.251h41.492v145.851h31.434v33.32h-31.434V260ZM624.056 88.374l-72.926 92.728h72.926V88.374Z"/><path fill="#F5F5F5" d="M466.758 259.037a156.868 156.868 0 0 0-34.372-234.234 156.868 156.868 0 0 0-169.308 0 156.865 156.865 0 0 0-34.373 234.234h238.053Z"/><path fill="#EF3E2C" d="M349.06 253.379c-17.851 0-33.196-4.412-46.033-13.238-12.837-8.825-22.665-21.562-29.485-38.21-6.82-16.849-10.23-37.108-10.23-60.776 0-35.703 7.623-63.383 22.867-83.04 15.244-19.657 36.204-29.485 62.881-29.485 26.878 0 47.838 9.828 62.882 29.485 15.244 19.657 22.866 47.337 22.866 83.04 0 23.668-3.41 43.927-10.23 60.776-6.819 16.648-16.648 29.385-29.485 38.21-12.636 8.826-27.981 13.238-46.033 13.238Zm0-33.095c14.241 0 25.273-6.619 33.096-19.858 7.822-13.439 11.734-33.196 11.734-59.271 0-26.276-3.912-46.033-11.734-59.271-7.823-13.44-18.855-20.159-33.096-20.159-14.04 0-24.972 6.72-32.794 20.159-7.823 13.238-11.734 32.995-11.734 59.271 0 26.075 3.911 45.832 11.734 59.271 7.822 13.239 18.754 19.858 32.794 19.858Z"/><path stroke="#1D1819" stroke-miterlimit="10" stroke-width="5" d="M451.016 140.048s19.778 55.78-30.106 62.758"/><path fill="#EF3E2C" d="M411.931 210.438a11.883 11.883 0 0 1-2.573-12.946 11.877 11.877 0 0 1 17.574-5.331 11.873 11.873 0 0 1 5.052 12.194 11.883 11.883 0 0 1-7.104 8.659 11.887 11.887 0 0 1-12.949-2.576Zm34.337-82.741a8.41 8.41 0 0 0 1.425 5.872 8.41 8.41 0 0 0 4.997 3.397c6.271 1.723 10.531-2.901 11.173-7.888a11.918 11.918 0 0 1 1.05 12.947 11.914 11.914 0 0 1-21.711-1.703 11.908 11.908 0 0 1 3.056-12.625h.01Z"/><path fill="#1D1819" d="m444.524 124.829 28.897 24.434c3.671-2.141 6.86-1.574 9.332.513a11.24 11.24 0 0 1 3.596 6.925l-5.929-5.02-6.057 7.16 6.207 5.255a8.348 8.348 0 0 1-8.626-1.563 7.642 7.642 0 0 1-2.269-9.418l-28.308-23.962a7.633 7.633 0 0 1-9.632-.696 8.362 8.362 0 0 1-2.964-8.241l5.747 4.859 6.057-7.149-5.458-4.623a11.275 11.275 0 0 1 7.428 2.397c2.397 2.066 3.489 5.148 1.979 9.129Z"/><path fill="#EF3E2C" d="M448.942 134.943c.287.409.614.789.974 1.134.268.364.557.717.846 1.07l.267.311c1.445 3.831 5.352 7.085 8.338 9.728a11.898 11.898 0 0 1-13.1-19.478 8.562 8.562 0 0 0 2.675 7.235Z"/><path stroke="#1D1819" stroke-miterlimit="10" stroke-width="5" d="M247.119 140.048s-19.778 55.78 30.105 62.758"/><path fill="#EF3E2C" d="M286.202 210.438a11.87 11.87 0 0 0-1.803-18.259 11.873 11.873 0 0 0-13.186 0 11.877 11.877 0 0 0-5.048 12.182 11.869 11.869 0 0 0 7.096 8.655 11.86 11.86 0 0 0 12.941-2.578Zm-34.331-82.741a8.416 8.416 0 0 1-6.422 9.269c-6.271 1.723-10.531-2.901-11.184-7.888a11.918 11.918 0 0 0-1.05 12.947 11.914 11.914 0 0 0 21.711-1.703 11.914 11.914 0 0 0-3.055-12.625Z"/><path fill="#1D1819" d="M292.397 179.09a1.47 1.47 0 0 1-.9 1.364 1.47 1.47 0 0 1-1.603-.316 1.47 1.47 0 0 1 .229-2.261 1.47 1.47 0 0 1 .819-.242 1.455 1.455 0 0 1 1.455 1.455Zm6.981 0a1.467 1.467 0 1 1-2.935.021 1.467 1.467 0 0 1 2.935-.021Zm5.498 1.466a1.466 1.466 0 1 0 .001-2.933 1.466 1.466 0 0 0-.001 2.933Zm88.254 0a1.466 1.466 0 1 0 0-2.931 1.466 1.466 0 0 0 0 2.931Zm8.431-1.466a1.467 1.467 0 1 1-2.935.021 1.467 1.467 0 0 1 2.935-.021Zm6.965 0a1.467 1.467 0 1 1-2.935.021 1.467 1.467 0 0 1 2.935-.021Z"/><path stroke="#49C5CC" stroke-miterlimit="10" stroke-width="5" d="M333.944 250.303s-21.501-32.867-3.992-48.364"/><path fill="#1D1819" d="m345.677 257.967-9.226-17.124h-19.007l4.045 8.562s-21.009-2.141-21.009 8.562h45.197Z"/><path stroke="#49C5CC" stroke-miterlimit="10" stroke-width="5" d="M368 250.303s21.512-32.867 4.003-48.364"/><path fill="#1D1819" d="m356.266 257.967 9.236-17.124h19.039l-4.035 8.562s20.998-2.141 20.998 8.562h-45.238Zm-32.404-143.412h-14.983v6.421h14.983v-6.421Z"/><path fill="#1D1819" d="M308.882 110.274h-5.351v13.913h5.351v-13.913Z"/><path fill="#93D8D8" d="M349.687 67.465h-.278c-18.837 0-34.108 15.27-34.108 34.108V186.4c0 18.838 15.271 34.108 34.108 34.108h.278c18.838 0 34.109-15.27 34.109-34.108v-84.827c0-18.837-15.271-34.108-34.109-34.108Z"/><path fill="#1D1819" d="M411.729 175.548H287.036l-13.313 25.643 15.903 25.728H409.14l15.903-25.728-13.314-25.643Z"/><path fill="#fff" d="M341.828 191.194v3.382a2.323 2.323 0 0 0 4.645 0v-3.382h-4.645Zm-32.508 0v3.382c0 .616.245 1.207.681 1.642a2.32 2.32 0 0 0 3.964-1.642v-3.382h-4.645Z"/><path fill="#fff" d="M313.965 191.194v3.382a2.323 2.323 0 0 0 4.645 0v-3.382h-4.645Z"/><path fill="#fff" d="M318.605 191.194v3.382c0 .616.245 1.207.681 1.642a2.32 2.32 0 0 0 3.964-1.642v-3.382h-4.645Z"/><path fill="#fff" d="M323.25 191.194v3.382a2.323 2.323 0 0 0 4.645 0v-3.382h-4.645Zm4.648 0v3.382a2.312 2.312 0 0 0 .681 1.642 2.312 2.312 0 0 0 1.642.681 2.32 2.32 0 0 0 2.322-2.323v-3.382h-4.645Z"/><path fill="#fff" d="M332.543 191.194v3.382a2.323 2.323 0 0 0 4.645 0v-3.382h-4.645Z"/><path fill="#fff" d="M337.188 191.194v3.382a2.32 2.32 0 1 0 4.644 0v-3.382h-4.644Zm9.289 0v3.382a2.32 2.32 0 1 0 4.644 0v-3.382h-4.644Z"/><path fill="#fff" d="M351.121 191.194v3.382a2.323 2.323 0 0 0 4.645 0v-3.382h-4.645Z"/><path fill="#fff" d="M355.766 191.194v3.382a2.32 2.32 0 1 0 4.644 0v-3.382h-4.644Z"/><path fill="#fff" d="M360.41 191.194v3.382a2.32 2.32 0 0 0 1.434 2.146 2.32 2.32 0 0 0 3.034-1.257 2.32 2.32 0 0 0 .177-.889v-3.382h-4.645Zm4.649 0v3.382a2.32 2.32 0 1 0 4.644 0v-3.382h-4.644Z"/><path fill="#fff" d="M369.699 191.194v3.382a2.323 2.323 0 0 0 4.645 0v-3.382h-4.645Z"/><path fill="#fff" d="M374.344 191.194v3.382a2.32 2.32 0 0 0 3.964 1.642 2.32 2.32 0 0 0 .681-1.642v-3.382h-4.645Zm4.648 0v3.382a2.32 2.32 0 0 0 1.434 2.146 2.32 2.32 0 0 0 3.034-1.257 2.32 2.32 0 0 0 .177-.889v-3.382h-4.645Zm-27.871 19.393v-3.382a2.32 2.32 0 0 0-3.964-1.642 2.32 2.32 0 0 0-.68 1.642v3.382h4.644Zm32.516 0v-3.382a2.325 2.325 0 0 0-2.322-2.322 2.325 2.325 0 0 0-2.323 2.322v3.382h4.645Zm-4.648 0v-3.382a2.321 2.321 0 0 0-4.645 0v3.382h4.645Zm-4.645 0v-3.382a2.325 2.325 0 0 0-2.322-2.322 2.325 2.325 0 0 0-2.323 2.322v3.382h4.645Z"/><path fill="#fff" d="M369.703 210.587v-3.382a2.32 2.32 0 0 0-3.964-1.642 2.32 2.32 0 0 0-.68 1.642v3.382h4.644Zm-4.648 0v-3.382a2.325 2.325 0 0 0-2.322-2.322 2.325 2.325 0 0 0-2.323 2.322v3.382h4.645Z"/><path fill="#fff" d="M360.41 210.587v-3.382a2.32 2.32 0 0 0-3.964-1.642 2.32 2.32 0 0 0-.68 1.642v3.382h4.644Z"/><path fill="#fff" d="M355.766 210.587v-3.382a2.325 2.325 0 0 0-2.322-2.322 2.325 2.325 0 0 0-2.323 2.322v3.382h4.645Zm-9.293 0v-3.382a2.325 2.325 0 0 0-2.322-2.322 2.325 2.325 0 0 0-2.323 2.322v3.382h4.645Z"/><path fill="#fff" d="M341.832 210.587v-3.382a2.32 2.32 0 0 0-3.964-1.642 2.32 2.32 0 0 0-.68 1.642v3.382h4.644Z"/><path fill="#fff" d="M337.188 210.587v-3.382a2.325 2.325 0 0 0-2.323-2.322 2.325 2.325 0 0 0-2.322 2.322v3.382h4.645Z"/><path fill="#fff" d="M332.543 210.587v-3.382a2.32 2.32 0 0 0-3.964-1.642 2.321 2.321 0 0 0-.681 1.642v3.382h4.645Zm-4.648 0v-3.382a2.325 2.325 0 0 0-2.323-2.322 2.325 2.325 0 0 0-2.322 2.322v3.382h4.645Z"/><path fill="#fff" d="M323.25 210.587v-3.382a2.32 2.32 0 0 0-3.964-1.642 2.321 2.321 0 0 0-.681 1.642v3.382h4.645Z"/><path fill="#fff" d="M318.61 210.587v-3.382a2.321 2.321 0 0 0-4.645 0v3.382h4.645Z"/><path fill="#fff" d="M313.965 210.587v-3.382a2.32 2.32 0 0 0-2.322-2.322 2.32 2.32 0 0 0-2.146 1.433 2.32 2.32 0 0 0-.177.889v3.382h4.645Z"/><path stroke="#EF3E2C" stroke-miterlimit="10" stroke-width="2" d="M313.987 190.542h63.647a10.448 10.448 0 0 1 10.446 10.445v.503a10.456 10.456 0 0 1-10.456 10.457h-63.647a10.444 10.444 0 0 1-10.446-10.446v-.503a10.455 10.455 0 0 1 10.456-10.456Z"/><path stroke="#EF3E2C" stroke-linecap="round" stroke-linejoin="round" stroke-width="2" d="M293.894 192.479s-2.921 3.938-2.921 8.251c0 4.313 2.921 8.615 2.921 8.615m105.196-16.866s2.922 3.938 2.922 8.251c0 4.313-2.922 8.615-2.922 8.615"/><path fill="#fff" d="M347.74 146.095a12.844 12.844 0 1 1-25.688 0 12.844 12.844 0 0 1 25.688 0Z"/><path fill="#1D1819" d="M338.13 146.095a3.263 3.263 0 0 1-5.572 2.308 3.26 3.26 0 0 1-.708-3.557 3.266 3.266 0 0 1 4.265-1.766 3.263 3.263 0 0 1 2.015 3.015Z"/><path fill="#fff" d="M375.608 146.095a12.845 12.845 0 0 1-21.925 9.081 12.836 12.836 0 0 1-3.514-6.576 12.846 12.846 0 0 1 12.596-15.348 12.842 12.842 0 0 1 12.843 12.843Z"/><path fill="#1D1819" d="M366.007 146.095a3.275 3.275 0 1 1-6.55.022 3.275 3.275 0 0 1 6.55-.022Z"/><g opacity=".4" style="mix-blend-mode:multiply"><path fill="#93D8D8" d="M383.058 118.59v-16.567a34.25 34.25 0 0 0-34.248-34.248 34.249 34.249 0 0 0-34.248 34.248v16.567h68.496Z"/><path fill="#1D1819" d="M353.335 118.59a12.609 12.609 0 0 0-6.753 0h6.753Z"/></g><path fill="#1D1819" d="m419.474 132.296-4.079 5.648 11.296 8.159 4.079-5.648-11.296-8.159Zm13.343 5.346-8.161 11.295 4.702 3.397 8.161-11.295-4.702-3.397Zm-35.001-9.174a16.058 16.058 0 0 1 2.794 5.148c.107.332 2.14-.096 2.14 0a16.036 16.036 0 0 0-2.793-5.148c-.15-.171-.878-.085-1.07-.085-.193 0-1.071.107-1.071.085Zm4.723-12.232a5.883 5.883 0 0 0 4.581.61c2.001-.386 3.606-2.558 4.43-4.281-.085.16-1.969-.375-2.14 0-.511 1.048-1.199 2-2.033 2.814a6.244 6.244 0 0 1-1.702 1.188 4.141 4.141 0 0 1-.621.214l.503-.064a2.74 2.74 0 0 1-.877-.503c-.503-.385-1.756.279-2.141 0v.022Zm-1.469 6.025a12.561 12.561 0 0 1 7.042 4.698c.311.418 1.959-.246 2.141 0a12.708 12.708 0 0 0-7.117-4.741c-.61-.15-1.67.139-2.066 0v.043Z"/><path fill="#1D1819" d="M340.613 86.076c-3.745 4.131-8.786 5.662-11.269 3.414-2.483-2.247-1.445-7.416 2.29-11.547 3.735-4.132 8.787-5.651 11.27-3.415 2.483 2.237 1.445 7.417-2.291 11.548Zm-11.85 13.795c-1.466 3.917-4.57 6.422-6.924 5.491-2.355-.932-3.061-4.774-1.595-8.69 1.466-3.918 4.581-6.422 6.925-5.502 2.343.92 3.114 4.773 1.594 8.701Z" style="mix-blend-mode:soft-light"/><path fill="#fff" d="M415.218 10.828a27.827 27.827 0 0 0-16.322 50.301l-.717 15.262 10.029-10.853a27.823 27.823 0 0 0 34.815-23.337 27.825 27.825 0 0 0-27.805-31.362v-.01Z"/><path fill="#1D1819" d="M411.885 45.373v-1.27c0-1.098.235-2.054.704-2.866.469-.813 1.327-1.676 2.575-2.592 1.201-.858 1.991-1.556 2.368-2.094a3.002 3.002 0 0 0 .584-1.802c0-.744-.275-1.31-.824-1.699-.549-.389-1.316-.583-2.3-.583-1.716 0-3.673.56-5.87 1.681l-1.871-3.758c2.552-1.43 5.258-2.146 8.119-2.146 2.357 0 4.227.567 5.612 1.7 1.396 1.132 2.094 2.643 2.094 4.53 0 1.26-.286 2.346-.858 3.262-.572.915-1.659 1.945-3.261 3.089-1.099.812-1.797 1.43-2.094 1.854-.286.423-.429.978-.429 1.664v1.03h-4.549Zm-.549 5.87c0-.961.258-1.688.773-2.18.514-.492 1.264-.738 2.248-.738.95 0 1.682.252 2.197.755.526.504.789 1.225.789 2.163 0 .904-.263 1.619-.789 2.145-.527.515-1.259.773-2.197.773-.961 0-1.705-.252-2.231-.755-.527-.515-.79-1.236-.79-2.163ZM259.529 95.291l-15.732 29.86 3.211 1.691 15.732-29.87a2.226 2.226 0 0 0 2.226-1.146l3.66-6.956-5.768-3.03-3.66 6.947a2.208 2.208 0 0 0 .331 2.504Z"/><path fill="#1D1819" d="M237.631 120.35 236 123.446l17.546 9.243 1.631-3.096-17.546-9.243Z"/><path fill="#1D1819" d="m239.644 124.059-14.675 27.857 11.457 6.036 14.675-27.858-11.457-6.035Z"/><path fill="#EF3E2C" d="M255.177 133.198a11.875 11.875 0 0 0-3.307-5.501 8.56 8.56 0 0 1-2.676 7.246 7.632 7.632 0 0 1-.974 1.134c-.203.278-.417.535-.642.803a32.614 32.614 0 0 1 3.393 8.872 11.884 11.884 0 0 0 4.206-12.554Z"/><path fill="#FAFCFB" d="M185.63 37.102a2.44 2.44 0 1 1-2.44-2.43 2.451 2.451 0 0 1 2.44 2.43Z"/></svg>