<svg width="19" height="18" fill="none" xmlns="http://www.w3.org/2000/svg"><path d="M15.992 2.583A9.107 9.107 0 0 0 9.635-.004c-6.877 0-11.196 7.451-7.761 13.379L.602 17.996l4.75-1.239c2.07 1.118 3.767 1.02 4.288 1.085 7.975 0 11.944-9.648 6.34-15.23l.012-.03Z" fill="#ECEFF1"/><path d="m9.652 16.31-.005-.001h-.012c-2.386 0-3.91-1.13-4.06-1.196l-2.813.732.753-2.734-.179-.281A7.401 7.401 0 0 1 2.2 8.885c0-6.595 8.059-9.893 12.723-5.231 4.652 4.612 1.386 12.656-5.27 12.656Z" fill="#EF3E2C"/><path d="m13.73 10.727-.007.056c-.226-.112-1.325-.65-1.53-.724-.46-.17-.33-.027-1.213.984-.13.146-.261.157-.484.056-.225-.113-.947-.349-1.802-1.114-.666-.596-1.113-1.328-1.245-1.553-.22-.379.24-.433.658-1.225.075-.158.037-.281-.019-.393-.056-.113-.504-1.215-.691-1.655-.18-.438-.365-.382-.504-.382-.432-.038-.748-.032-1.026.258-1.21 1.33-.905 2.703.13 4.162 2.036 2.665 3.12 3.155 5.104 3.836.535.17 1.023.146 1.41.09.43-.067 1.325-.54 1.512-1.069.19-.529.19-.967.135-1.069-.056-.1-.203-.157-.428-.258Z" fill="#FAFAFA"/></svg>