<svg width="186" height="46" fill="none" xmlns="http://www.w3.org/2000/svg"><path d="M13.843 13.826c-.431 2.492-.83 4.785-1.246 7.077-1.21 6.893-2.43 13.785-3.66 20.678-.155.862-.278 1.739-.462 2.6 0 .2-.292.492-.462.492H0c2.538-14.416 5.076-28.77 7.583-43.17h14.365a7.904 7.904 0 0 1 6.86 3.323c4.983 6.759 9.962 13.523 14.935 20.293l4.922 6.708.415.446c.185-.97.354-1.8.508-2.646L53.863 5.24c.185-1.077.37-2.17.6-3.262 0-.2.323-.507.508-.507h7.798s.092 0 .17.092c-.37 2.185-.74 4.385-1.124 6.585l-2.307 12.985c-1.323 7.508-2.692 15.032-3.968 22.555-.154.877-.462 1.03-1.246 1.03-4.399 0-8.798-.092-13.181 0a8.12 8.12 0 0 1-7.106-3.584c-2.85-3.877-5.701-7.775-8.552-11.693l-11.043-15c-.139-.185-.293-.339-.57-.662M117.649 44.689H103.391a7.889 7.889 0 0 1-6.829-3.385l-6.352-8.6L76.598 14.24a2.1 2.1 0 0 1-.2-.307h-.185a320.138 320.138 0 0 0-.723 4.077c-1.179 6.41-2.332 12.785-3.46 19.123-.416 2.308-.816 4.616-1.246 6.955 0 .2-.277.523-.43.523H62.34c.138-.877.261-1.693.4-2.493a4509.447 4509.447 0 0 0 3.476-19.585L69.6 3.379v-.092c.323-1.831.323-1.846 2.153-1.846h12.381a8.042 8.042 0 0 1 7.06 3.523l8.413 11.446 11.151 15.124c.17.231.339.462.631.831 1.861-10.4 3.661-20.616 5.399-30.863h8.413c-2.543 14.36-5.106 28.755-7.69 43.187M178.924 39.689c-.153 1.538-.323 2.877-.43 4.261 0 .57-.385.662-.831.708-2.092.23-4.199.523-6.29.708-5.772.54-11.571.736-17.365.584a49.823 49.823 0 0 1-12.874-1.723 19.843 19.843 0 0 1-9.613-5.554 15.657 15.657 0 0 1-3.814-8.708 25.659 25.659 0 0 1 16.534-26.678A49.343 49.343 0 0 1 158.976.21a126.46 126.46 0 0 1 17.072.17c3.276.245 6.537.645 9.952 1a500.167 500.167 0 0 0-1.185 4.923c-2.199-.354-4.291-.77-6.398-1.016-6.921-.754-13.766-.584-20.226 2.4a19.776 19.776 0 0 0-11.505 14.97 17.037 17.037 0 0 0 .246 8.524 12.508 12.508 0 0 0 7.983 8.092 30.751 30.751 0 0 0 11.366 1.754 60.698 60.698 0 0 0 12.121-1.354c.174-.012.348-.012.522 0" fill="#DD0B16"/></svg>