<svg xmlns="http://www.w3.org/2000/svg" width="25" height="24" fill="none"><path fill="#1D1819" d="M9.097 14.684a1 1 0 1 0-1.897.632C7.904 17.43 9.827 19 12.149 19c2.32 0 4.244-1.571 4.948-3.684a1 1 0 1 0-1.897-.632C14.74 16.067 13.52 17 12.149 17c-1.373 0-2.591-.933-3.052-2.316ZM9.148 9.5a1.5 1.5 0 1 1-3 0 1.5 1.5 0 0 1 3 0ZM16.648 11a1.5 1.5 0 1 0 0-3 1.5 1.5 0 0 0 0 3Z"/><path fill="#1D1819" fill-rule="evenodd" d="M12.148 0c-6.627 0-12 5.373-12 12s5.373 12 12 12c6.628 0 12-5.373 12-12s-5.372-12-12-12Zm-10 12c0-5.523 4.478-10 10-10 5.523 0 10 4.477 10 10s-4.477 10-10 10c-5.522 0-10-4.477-10-10Z" clip-rule="evenodd"/></svg>