<svg xmlns="http://www.w3.org/2000/svg" width="16" height="16" fill="none"><path fill="#EF3E2C" fill-rule="evenodd" d="M1.25 1.014c.88-1.23 2.645-1.34 3.63-.142l.25.305c.732.891 1.464 1.782 1.745 2.063a.839.839 0 0 1 .126 1.024l-1.54 2.568c.098.162.232.354.403.574.305.392.695.828 1.13 1.263.733.732 1.553 1.424 2.259 1.891l2.527-1.517a.839.839 0 0 1 .973.08l2.44 2.063a2.281 2.281 0 0 1-.148 3.598c-1.866 1.333-4.374 1.65-6.43.396-1.416-.865-3.152-2.086-4.705-3.639A21.028 21.028 0 0 1 .743 7.46c-1.251-2.097-.814-4.594.508-6.445Zm2.334.923c-.259-.315-.708-.313-.969.052C1.58 3.44 1.355 5.212 2.183 6.6a19.351 19.351 0 0 0 2.913 3.755c1.43 1.43 3.047 2.572 4.393 3.393 1.387.846 3.166.682 4.58-.33a.604.604 0 0 0 .04-.951l-1.98-1.677-2.45 1.47a.839.839 0 0 1-.846.01c-.963-.546-2.089-1.48-3.025-2.415-.472-.473-.91-.96-1.267-1.419-.347-.445-.654-.91-.82-1.334a.839.839 0 0 1 .063-.736l1.46-2.432a93.946 93.946 0 0 1-1.393-1.672l-.267-.325Z" clip-rule="evenodd"/></svg>