<svg xmlns="http://www.w3.org/2000/svg" width="122" height="30" fill="none"><path fill="#DD0B16" d="M9.03 9.017c-.28 1.626-.541 3.12-.812 4.616-.79 4.495-1.586 8.99-2.388 13.485-.1.562-.18 1.134-.301 1.696 0 .13-.191.321-.301.321H0C1.656 19.733 3.311 10.372 4.947.98h9.371a5.157 5.157 0 0 1 4.475 2.167c3.251 4.409 6.499 8.82 9.743 13.235l3.211 4.375.271.29c.12-.631.23-1.173.331-1.725l2.79-15.904c.12-.702.24-1.415.39-2.127 0-.13.212-.331.332-.331h5.087s.06 0 .11.06c-.24 1.425-.481 2.86-.732 4.295l-1.505 8.468c-.863 4.897-1.756 9.803-2.589 14.71-.1.572-.3.672-.812.672-2.87 0-5.74-.06-8.6 0a5.3 5.3 0 0 1-4.635-2.338c-1.86-2.528-3.72-5.07-5.579-7.626L9.402 9.42c-.09-.12-.19-.221-.372-.432m67.72 20.157h-9.302a5.148 5.148 0 0 1-4.455-2.208l-4.144-5.609-8.88-12.04a1.373 1.373 0 0 1-.13-.2h-.12c-.161.882-.322 1.765-.472 2.658-.77 4.18-1.522 8.338-2.258 12.472-.27 1.505-.531 3.01-.812 4.535 0 .13-.181.342-.281.342h-5.228c.09-.572.17-1.104.26-1.626.763-4.24 1.52-8.498 2.269-12.773.735-4.167 1.471-8.331 2.207-12.492v-.06C45.614.95 45.614.94 46.809.94h8.077a5.248 5.248 0 0 1 4.605 2.297l5.489 7.466 7.275 9.863c.11.15.22.3.411.542A2255.512 2255.512 0 0 0 76.188.98h5.488c-1.659 9.365-3.33 18.753-5.017 28.165m40.065-3.261c-.1 1.003-.21 1.876-.281 2.78 0 .37-.25.43-.541.46-1.365.151-2.74.342-4.104.462a94.93 94.93 0 0 1-11.329.382 32.507 32.507 0 0 1-8.398-1.124 12.943 12.943 0 0 1-6.271-3.622 10.214 10.214 0 0 1-2.489-5.68A16.736 16.736 0 0 1 94.099 2.145 32.196 32.196 0 0 1 103.71.137a82.535 82.535 0 0 1 11.138.11c2.137.16 4.264.422 6.492.653a339.27 339.27 0 0 0-.773 3.21c-1.435-.23-2.799-.501-4.174-.662-4.515-.492-8.98-.381-13.194 1.565a12.895 12.895 0 0 0-7.506 9.763 11.109 11.109 0 0 0 .16 5.56 8.156 8.156 0 0 0 5.208 5.277 20.07 20.07 0 0 0 7.415 1.144 39.6 39.6 0 0 0 7.907-.883c.114-.008.228-.008.341 0"/></svg>