<svg xmlns="http://www.w3.org/2000/svg" width="19" height="18" fill="none"><path fill="#EF3E2C" d="M11.402 1.8a1.8 1.8 0 1 1-3.6 0 1.8 1.8 0 0 1 3.6 0Zm0 7.2a1.8 1.8 0 1 1-3.6 0 1.8 1.8 0 0 1 3.6 0Zm-1.8 9a1.8 1.8 0 1 0 0-3.6 1.8 1.8 0 0 0 0 3.6Zm-5.4-9a1.8 1.8 0 1 1-3.6 0 1.8 1.8 0 0 1 3.6 0Zm-1.8-5.4a1.8 1.8 0 1 0 0-3.6 1.8 1.8 0 0 0 0 3.6Zm1.8 12.6a1.8 1.8 0 1 1-3.6 0 1.8 1.8 0 0 1 3.6 0Zm12.6-5.4a1.8 1.8 0 1 0 0-3.6 1.8 1.8 0 0 0 0 3.6Zm1.8-9a1.8 1.8 0 1 1-3.6 0 1.8 1.8 0 0 1 3.6 0Zm-1.8 16.2a1.8 1.8 0 1 0 0-3.6 1.8 1.8 0 0 0 0 3.6Z"/></svg>