<svg width="221" height="55" fill="none" xmlns="http://www.w3.org/2000/svg"><g style="mix-blend-mode:soft-light" fill="#fff"><path d="M16.975 16.956c-.51 2.947-.983 5.658-1.474 8.369-1.431 8.15-2.874 16.3-4.33 24.45-.182 1.019-.327 2.056-.545 3.074 0 .237-.346.583-.546.583H.602C3.603 36.385 6.605 19.411 9.57 2.383H26.562a9.35 9.35 0 0 1 8.114 3.93A17456.31 17456.31 0 0 1 52.34 30.309l5.822 7.932.491.528c.218-1.147.418-2.129.6-3.13 1.686-9.605 3.372-19.217 5.058-28.834.218-1.274.436-2.565.71-3.857 0-.236.381-.6.6-.6h9.223s.11 0 .2.109c-.436 2.583-.873 5.185-1.328 7.786l-2.729 15.354c-1.564 8.878-3.183 17.774-4.693 26.67-.182 1.037-.546 1.219-1.474 1.219-5.203 0-10.406-.11-15.59 0a9.605 9.605 0 0 1-8.405-4.239A3409.03 3409.03 0 0 1 30.71 35.421L17.648 17.684c-.164-.219-.346-.4-.673-.783M139.755 53.449h-16.864a9.335 9.335 0 0 1-8.077-4.002l-7.514-10.17-16.1-21.83a2.509 2.509 0 0 1-.236-.364h-.219c-.29 1.6-.582 3.202-.855 4.82-1.394 7.58-2.759 15.118-4.093 22.614-.491 2.728-.964 5.457-1.474 8.222 0 .237-.327.619-.509.619h-9.478c.164-1.037.31-2.001.473-2.947 1.383-7.69 2.753-15.409 4.111-23.159 1.334-7.556 2.669-15.105 4.003-22.65v-.108c.382-2.165.382-2.183 2.547-2.183h14.644a9.512 9.512 0 0 1 8.351 4.166l9.951 13.535 13.189 17.883c.2.272.4.545.746.982a4067.88 4067.88 0 0 0 6.385-36.494h9.952c-3.008 16.98-6.04 34.002-9.096 51.066M212.233 47.537c-.181 1.82-.382 3.402-.509 5.04 0 .672-.455.782-.982.836-2.474.273-4.967.619-7.441.837-6.826.64-13.685.87-20.539.691a58.945 58.945 0 0 1-15.227-2.037 23.467 23.467 0 0 1-11.37-6.568 18.526 18.526 0 0 1-4.512-10.296A30.346 30.346 0 0 1 171.21 4.494 58.378 58.378 0 0 1 188.638.856a149.64 149.64 0 0 1 20.194.2c3.874.291 7.731.764 11.77 1.182a631.012 631.012 0 0 0-1.401 5.822c-2.601-.419-5.076-.91-7.568-1.2-8.186-.892-16.282-.692-23.923 2.837a23.374 23.374 0 0 0-13.607 17.701c-.76 3.33-.66 6.798.291 10.079a14.79 14.79 0 0 0 9.441 9.569 36.387 36.387 0 0 0 13.444 2.074 71.81 71.81 0 0 0 14.336-1.601c.206-.015.413-.015.618 0"/></g></svg>