<svg xmlns="http://www.w3.org/2000/svg" width="32" height="32" fill="none"><path fill="#00B862" fill-rule="evenodd" d="M23.543 0H9.57a1.06 1.06 0 0 0-.74.3L.927 7.952a1.065 1.065 0 0 0-.325.766v19.548C.602 30.671 1.935 32 4.335 32h19.2c2.4 0 3.733-1.333 3.733-3.734V3.733C27.276 1.333 25.943 0 23.543 0ZM8.477 3.53V7.6H4.255l4.222-4.07ZM25.41 28.269c0 .862-.235 1.26-.419 1.446-.184.187-.586.42-1.448.42h-19.2c-.86 0-1.26-.229-1.449-.42-.189-.191-.418-.584-.418-1.446V9.457c.043.005.086.008.129.009h6.538a1.2 1.2 0 0 0 1.2-1.2V1.962c0-.032 0-.063-.007-.094h13.207c.862 0 1.26.229 1.448.419.188.19.42.584.42 1.447V28.27Z" clip-rule="evenodd"/><path fill="#00B862" d="M8.615 26.666c-1.732 0-2.666-.933-2.666-2.666v-7.466c0-1.734.934-2.668 2.666-2.668h20.001c1.733 0 2.666.934 2.666 2.668V24c0 1.733-.933 2.666-2.666 2.666h-20Z"/><path fill="#fff" d="M12.73 21.438c.004.16-.023.32-.08.47a.62.62 0 0 1-.242.29.721.721 0 0 1-.385.095.781.781 0 0 1-.374-.084.628.628 0 0 1-.247-.251.865.865 0 0 1-.094-.394h-1.223c-.016.338.07.673.245.962.164.253.4.453.677.572.302.127.627.19.955.185a2.28 2.28 0 0 0 1.037-.23c.288-.142.53-.364.696-.638.173-.297.26-.635.25-.978V17.38H12.73v4.058Zm6.458-3.804a2.34 2.34 0 0 0-1.127-.253h-2.297v5.818h1.23v-1.886h1.03c.396.012.79-.073 1.145-.248a1.72 1.72 0 0 0 .727-.687 2.229 2.229 0 0 0 0-2.045 1.718 1.718 0 0 0-.708-.7Zm-.426 2.228a.83.83 0 0 1-.344.343 1.25 1.25 0 0 1-.586.123h-.835V18.38h.829c.204-.008.407.034.592.122a.803.803 0 0 1 .344.344c.08.156.12.33.114.506.004.176-.035.351-.114.509Zm5.709.225v.925h1.249a1.22 1.22 0 0 1-.158.608 1.064 1.064 0 0 1-.459.424 1.58 1.58 0 0 1-.714.148 1.356 1.356 0 0 1-1.32-.873 2.604 2.604 0 0 1-.184-1.03c-.01-.353.053-.705.187-1.031a1.46 1.46 0 0 1 .523-.645c.233-.15.506-.227.784-.221a1.46 1.46 0 0 1 .435.06 1.12 1.12 0 0 1 .616.445c.074.113.13.237.167.367h1.25a2.163 2.163 0 0 0-.813-1.411 2.44 2.44 0 0 0-.754-.405 2.864 2.864 0 0 0-.922-.144 2.801 2.801 0 0 0-1.07.201 2.502 2.502 0 0 0-.867.588 2.68 2.68 0 0 0-.578.944 3.571 3.571 0 0 0-.205 1.26c-.014.55.103 1.095.343 1.59.216.43.551.788.966 1.031a3.027 3.027 0 0 0 2.738.065 2.2 2.2 0 0 0 .891-.846c.225-.402.338-.858.326-1.318v-.733h-2.43Z"/></svg>