<svg xmlns="http://www.w3.org/2000/svg" width="32" height="32" fill="none"><path fill="#1D1819" fill-rule="evenodd" d="M23.543 0H9.57c-.277 0-.543.108-.742.301L.926 7.953a1.064 1.064 0 0 0-.324.766v19.548c0 2.4 1.333 3.733 3.733 3.733h19.208c2.4 0 3.733-1.333 3.733-3.733V3.736C27.282 1.331 25.943 0 23.543 0ZM8.477 3.53V7.6H4.26l4.216-4.07Zm16.932 24.739c0 .862-.23 1.26-.42 1.446-.19.187-.583.42-1.446.42h-19.2c-.862 0-1.26-.234-1.447-.42-.188-.185-.42-.584-.42-1.446V9.463c.043.005.085.009.128.01h6.54a1.2 1.2 0 0 0 1.198-1.2V1.96c0-.032 0-.062-.006-.094h13.207c.863 0 1.26.229 1.447.42.187.191.419.584.419 1.447v24.535Z" clip-rule="evenodd"/><path fill="#1D1819" d="M8.613 26.667c-1.733 0-2.666-.933-2.666-2.667v-7.466c0-1.733.933-2.667 2.666-2.667H28.61c1.733 0 2.666.934 2.666 2.666V24c0 1.734-.933 2.667-2.666 2.667H8.613Z"/><path fill="#fff" d="M19.793 20.766h2.452v-.999h-2.452v-1.364h2.65v-.999h-3.86v5.727h3.872v-.998h-2.662v-1.367Zm6.714.486h-.065l-1.577-3.848h-1.494v5.727h1.176v-3.742h.047l1.48 3.714h.8l1.483-3.699h.048v3.727h1.173v-5.727h-1.494l-1.577 3.848Zm-14.587-.418a1.39 1.39 0 0 0-.348-.466 2 2 0 0 0-.526-.329 3.542 3.542 0 0 0-.668-.22l-.5-.118a3.06 3.06 0 0 1-.343-.098 1.459 1.459 0 0 1-.28-.139.627.627 0 0 1-.194-.193.464.464 0 0 1-.065-.26c0-.116.039-.23.11-.321a.683.683 0 0 1 .303-.22c.156-.057.321-.085.487-.08.237-.013.472.05.67.181a.689.689 0 0 1 .281.512h1.127a1.545 1.545 0 0 0-.267-.876c-.18-.26-.43-.465-.722-.59a2.589 2.589 0 0 0-1.081-.212 2.67 2.67 0 0 0-1.087.211 1.82 1.82 0 0 0-.752.59 1.473 1.473 0 0 0-.27.883 1.257 1.257 0 0 0 .405.986c.321.266.703.45 1.111.535l.605.152c.176.04.349.094.516.163a.833.833 0 0 1 .319.22c.075.087.114.2.11.314a.555.555 0 0 1-.123.357.797.797 0 0 1-.344.242c-.167.06-.343.09-.52.086a1.535 1.535 0 0 1-.548-.092.892.892 0 0 1-.383-.28.84.84 0 0 1-.16-.467h-1.14c-.004.357.097.708.292 1.008.194.275.464.488.777.61.374.146.773.216 1.173.207.397.01.791-.059 1.16-.204a1.62 1.62 0 0 0 .737-.578 1.598 1.598 0 0 0 .136-1.503v-.01Zm1.043-2.432h1.755v4.729h1.194v-4.729h1.756v-.998h-4.705v.998Z"/></svg>