<svg xmlns="http://www.w3.org/2000/svg" width="32" height="32" fill="none"><path fill="#316FF7" fill-rule="evenodd" d="M23.543 0H9.57c-.277 0-.543.108-.742.301L.926 7.953a1.064 1.064 0 0 0-.324.766v19.548c0 2.4 1.333 3.733 3.733 3.733h19.208c2.4 0 3.733-1.333 3.733-3.733V3.736C27.282 1.331 25.943 0 23.543 0ZM8.477 3.53V7.6H4.26l4.216-4.07Zm16.932 24.739c0 .862-.23 1.26-.42 1.446-.19.187-.583.42-1.446.42h-19.2c-.862 0-1.26-.234-1.447-.42-.188-.185-.42-.584-.42-1.446V9.463c.043.005.085.009.128.01h6.54a1.2 1.2 0 0 0 1.198-1.2V1.96c0-.032 0-.062-.006-.094h13.207c.863 0 1.26.229 1.447.42.187.191.419.584.419 1.447v24.535Z" clip-rule="evenodd"/><path fill="#316FF7" d="M8.613 26.667c-1.733 0-2.666-.933-2.666-2.667v-7.466c0-1.733.933-2.667 2.666-2.667H28.61c1.733 0 2.666.934 2.666 2.666V24c0 1.734-.933 2.667-2.666 2.667H8.613Z"/><path fill="#fff" d="M22.886 21.317h-.067l-1.609-3.924h-1.523v5.84h1.199v-3.816h.048l1.51 3.788h.816l1.512-3.773h.049v3.802h1.197v-5.841h-1.524l-1.608 3.924Zm-7.835-.927a1.298 1.298 0 0 0-.624-.19v-.057c.194-.04.378-.119.542-.23.158-.108.287-.252.376-.422.095-.186.141-.392.137-.6a1.397 1.397 0 0 0-.217-.776 1.414 1.414 0 0 0-.647-.53 2.643 2.643 0 0 0-1.075-.191h-2.337v5.839H13.7c.378.01.755-.061 1.102-.212a1.55 1.55 0 0 0 .676-.575c.155-.248.235-.536.23-.828a1.445 1.445 0 0 0-.182-.742 1.32 1.32 0 0 0-.476-.487Zm-2.611-2h.938a.938.938 0 0 1 .633.194.641.641 0 0 1 .23.51.667.667 0 0 1-.115.396.757.757 0 0 1-.314.258 1.09 1.09 0 0 1-.45.087h-.92l-.002-1.445Zm1.76 3.635c-.159.13-.41.197-.753.197H12.44v-1.551h1.034c.176-.005.35.032.51.105a.794.794 0 0 1 .334.291.78.78 0 0 1 .115.428.66.66 0 0 1-.233.526v.004Zm4.112-4.725h-1.229v5.842h1.23V17.3Z"/></svg>